<?xml version="1.0" encoding="UTF-8"?> <!-- Creator: CorelDRAW X7 --> <svg xmlns="http://www.w3.org/2000/svg" xmlns:xlink="http://www.w3.org/1999/xlink" xml:space="preserve" width="675.157cm" height="61.3351cm" style="shape-rendering:geometricPrecision; text-rendering:geometricPrecision; image-rendering:optimizeQuality; fill-rule:evenodd; clip-rule:evenodd" viewBox="0 0 1819674 165310"> <defs> <style type="text/css"> <![CDATA[ .fil2 {fill:none} .fil3 {fill:#EBECEC} .fil1 {fill:#052021} .fil0 {fill:#070706} ]]> </style> <clipPath id="id0"> <path d="M0 0l1819674 0 0 165310 -1819674 0 0 -165310z"></path> </clipPath> </defs> <g id="Слой_x0020_1"> <metadata id="CorelCorpID_0Corel-Layer"></metadata> <polygon class="fil0" points="0,0 1819674,0 1819674,165310 0,165310 "></polygon> <g style="clip-path:url(#id0)"> <g id="_868389200"> <path id="1" class="fil1" d="M97331 96355l-56169 0 0 66215 -41099 0 0 -159830 41099 0 0 59365 56169 0 0 -59365 41099 0 0 159830 -41099 0 0 -66215zm118959 -93615l34934 0 63019 159830 -43154 0 -10275 -28085 -56397 0 -10047 28085 -39957 0 61877 -159830zm-228 100008l33335 0 -16667 -46123 -16668 46123zm126037 -100008l36532 0 37674 93386 35620 -93386 36532 0 21920 159830 -39501 0 -12101 -87450 -34478 87450 -17353 0 -35619 -87450 -11188 87450 -37903 0 19865 -159830zm235406 125580l15755 0c4566,-12177 8106,-26219 10617,-42126 2512,-15907 3768,-34516 3768,-55826l0 -27628 110282 0 0 125580 19408 0 0 33441 -159830 0 0 -33441zm69412 -91331c-304,19332 -1484,36419 -3539,51260 -2055,14841 -5290,28198 -9704,40071l43154 0 0 -91331 -29911 0zm186316 92930c6241,0 12063,-990 17467,-2969 5404,-1978 10084,-4985 14042,-9018 3958,-4034 7040,-9019 9247,-14956 2208,-5937 3311,-12786 3311,-20550 0,-7610 -1103,-14384 -3311,-20321 -2207,-5936 -5251,-10921 -9133,-14955 -3881,-4034 -8524,-7116 -13928,-9248 -5403,-2131 -11302,-3196 -17695,-3196 -6393,0 -12292,1027 -17696,3082 -5403,2055 -10046,5100 -13928,9133 -3881,4034 -6926,9019 -9133,14956 -2207,5936 -3310,12786 -3310,20549 0,7611 1065,14347 3196,20208 2131,5860 5137,10807 9019,14841 3882,4034 8524,7116 13928,9247 5404,2131 11378,3197 17924,3197zm0 34249c-13243,0 -25192,-1941 -35848,-5822 -10655,-3882 -19712,-9400 -27171,-16554 -7458,-7154 -13205,-15755 -17239,-25801 -4033,-10047 -6050,-21235 -6050,-33565 0,-11568 1979,-22338 5936,-32308 3958,-9970 9666,-18647 17125,-26029 7459,-7383 16516,-13167 27171,-17353 10655,-4186 22681,-6279 36076,-6279 12786,0 24469,1940 35048,5822 10579,3882 19675,9438 27285,16668 7611,7230 13510,15869 17696,25915 4186,10047 6279,21235 6279,33564 0,11569 -2017,22339 -6051,32309 -4034,9970 -9818,18609 -17353,25915 -7535,7307 -16592,13053 -27171,17239 -10579,4186 -22490,6279 -35733,6279zm107999 -161428l61420 0c8829,0 16516,989 23062,2968 6545,1979 11911,4681 16097,8106 4186,3425 7306,7535 9361,12330 2055,4794 3083,9932 3083,15412 0,8067 -1827,14955 -5480,20663 -3654,5709 -8448,10161 -14385,13358 9285,2587 16516,7040 21691,13357 5176,6317 7763,14499 7763,24545 0,7002 -1370,13510 -4109,19522 -2740,6013 -6622,11188 -11645,15526 -5023,4339 -11112,7764 -18266,10275 -7155,2512 -15222,3768 -24203,3768l-64389 0 0 -159830zm41099 93158l0 32422 14157 0c9285,0 15678,-1522 19179,-4566 3501,-3044 5252,-7078 5252,-12101 0,-5024 -1561,-8905 -4681,-11645 -3121,-2740 -8030,-4110 -14727,-4110l-19180 0zm0 -58909l0 29226 15070 0c5328,0 9361,-1370 12101,-4110 2740,-2740 4110,-6545 4110,-11416 0,-4871 -1370,-8372 -4110,-10503 -2740,-2131 -6545,-3197 -11416,-3197l-15755 0zm103433 -34249l94071 0 0 34249 -52972 0 0 25801 43154 0 0 33108 -43154 0 0 32422 55255 0 0 34250 -96354 0 0 -159830zm169420 0c9589,0 18190,1103 25801,3311 7611,2207 14080,5480 19408,9818 5327,4338 9437,9780 12329,16325 2892,6546 4338,14233 4338,23061 0,17506 -5632,31015 -16896,40529 -11264,9513 -27019,14270 -47264,14270l-8220 0 0 52516 -41099 0 0 -159830 51603 0zm-3882 73065c8829,0 15032,-1865 18609,-5594 3577,-3729 5365,-8410 5365,-14042 0,-2588 -380,-5023 -1141,-7307 -761,-2283 -2055,-4300 -3882,-6050 -1826,-1751 -4338,-3159 -7535,-4225 -3196,-1065 -7230,-1598 -12101,-1598l-5937 0 0 38816 6622 0zm67357 82198l37217 -62333c-6088,-4110 -10845,-9552 -14270,-16326 -3425,-6774 -5138,-14955 -5138,-24545 0,-8372 1408,-15793 4224,-22262 2817,-6470 6812,-11911 11988,-16326 5175,-4414 11454,-7763 18837,-10046 7382,-2283 15564,-3425 24545,-3425l55940 0 0 159830 -41099 0 0 -57082 -15754 0 -31738 57082 -44752 0 0 -4567zm92244 -86765l0 -34249 -12786 0c-6393,0 -11226,1675 -14499,5023 -3273,3349 -4909,7459 -4909,12330 0,4567 1522,8524 4567,11873 3044,3349 8219,5023 15526,5023l12101 0zm111881 -11416l18267 0c1978,-8981 5175,-17125 9589,-24431 4415,-7307 9933,-13586 16554,-18837 6622,-5252 14271,-9324 22947,-12216 8677,-2892 18190,-4338 28541,-4338 12025,0 23061,1979 33108,5937 10046,3957 18685,9589 25915,16896 7230,7306 12824,16059 16782,26258 3958,10198 5937,21462 5937,33792 0,12178 -1979,23290 -5937,33336 -3958,10047 -9552,18723 -16782,26029 -7230,7307 -15869,12977 -25915,17011 -10047,4034 -21083,6051 -33108,6051 -10960,0 -21006,-1675 -30139,-5024 -9133,-3348 -17087,-8105 -23861,-14270 -6773,-6165 -12291,-13662 -16553,-22490 -4262,-8829 -7078,-18647 -8448,-29455l-16897 0 0 68499 -41099 0 0 -159830 41099 0 0 57082zm95898 70097c5632,0 10770,-990 15412,-2969 4643,-1978 8677,-4947 12102,-8904 3425,-3958 6088,-8867 7991,-14727 1903,-5861 2854,-12749 2854,-20664 0,-7611 -951,-14347 -2854,-20207 -1903,-5861 -4566,-10808 -7991,-14842 -3425,-4033 -7459,-7078 -12102,-9133 -4642,-2055 -9780,-3082 -15412,-3082 -5480,0 -10655,951 -15526,2854 -4871,1903 -9095,4719 -12672,8448 -3578,3729 -6432,8448 -8563,14156 -2131,5709 -3196,12292 -3196,19751 0,8372 1065,15640 3196,21805 2131,6165 4985,11302 8563,15412 3577,4110 7801,7155 12672,9133 4871,1979 10046,2969 15526,2969zm125352 -92930l-34477 0 0 -34249 110054 0 0 34249 -34478 0 0 125581 -41099 0 0 -125581z"></path> </g> </g> <polygon class="fil2" points="0,0 1819674,0 1819674,165310 0,165310 "></polygon> <g id="_868387728"> <path class="fil3" d="M1358859 90947l-13590 0 0 -6565 12437 20c995,8 2023,-184 3078,785 722,663 834,1501 939,2318 51,395 -38,968 -157,1386 -40,138 -53,177 -113,294 -2,3 -50,87 -63,111 -189,352 -57,310 -396,650 -165,165 -235,237 -426,387 -429,336 -366,350 -1004,506 -230,56 -396,108 -705,108zm553 5461c158,-50 1538,14 3302,-849 1022,-500 1809,-1078 2635,-1896 1677,-1663 2579,-4344 2393,-6780 -85,-1109 -601,-2464 -1100,-3431 -180,-348 -434,-606 -633,-936 -310,-516 -1379,-1491 -1907,-1869 -164,-118 -273,-193 -446,-309 -573,-385 -1860,-905 -2206,-1014 -1134,-358 -2587,-403 -3927,-403 -4085,0 -8170,0 -12254,0l0 -6100 20210 0 0 -5378c-588,-106 -12148,-30 -13067,-30 -4350,0 -8700,0 -13049,0l0 28948 18857 0c295,0 1016,-109 1192,47z"></path> <path class="fil3" d="M1341203 56379c-142,612 -971,2053 -1285,2840 -116,294 -396,666 -560,1124 -69,191 -53,145 -118,289 -64,139 -93,191 -128,337l96756 0c-23,-277 -388,-653 -638,-1162 -195,-398 -475,-782 -695,-1165l-675 -1125c-248,-404 -447,-787 -663,-1196 -30718,0 -61266,58 -91994,58z"></path> <path class="fil3" d="M1341552 107330l91703 0c208,0 177,-129 237,-244l817 -1373c232,-451 323,-524 533,-862 357,-574 634,-1154 1031,-1757 121,-185 148,-101 169,-353l-96755 0c74,154 42,206 251,620l686 1422c4,8 12,23 16,31 7,14 29,55 36,70l658 1322c187,364 342,1124 618,1124z"></path> <path class="fil3" d="M1373087 67708c-463,-329 -158,-261 -1104,-261l-6 28885 5288 0 4 -17126c329,24 619,422 827,630l563 549c52,80 34,8 44,119l-40 160c218,32 1838,1752 2018,1932l4007 4009c579,585 1625,1387 2047,2018 255,-170 3475,-3385 3816,-3793 455,-545 1005,-1068 1521,-1558l812 -815c60,-60 81,-79 146,-144l1394 -1394c52,-50 33,-36 86,-89l1257 -1240c156,-168 199,-316 435,-379l0 17197 5401 0 0 -25214c0,-1162 57,-2466 7,-3609 -16,-376 -166,-304 -592,-289 -494,16 -693,481 -1027,775 -953,839 -1800,1889 -2752,2650 -673,536 -1581,1622 -2271,2260 -175,162 -284,223 -465,406l-4094 4038c-156,155 -276,289 -435,436l-3239 3093c-251,-168 -616,-588 -856,-828l-3834 -3717c-159,-147 -280,-281 -435,-436 -582,-582 -1120,-1146 -1712,-1716 -165,-158 -268,-205 -438,-375l-1356 -1374c-54,-49 -68,-57 -123,-109l-515 -532c-39,-39 -76,-75 -119,-116l-180 -138c-387,-242 -1935,-1922 -2322,-2294l-1627 -1564c-120,-78 -14,-44 -131,-47z"></path> <path class="fil3" d="M1345559 113663l56102 -58c3792,0 7407,-58 11209,-58l15448 0c1164,0 681,144 1412,-738 70,-85 96,-101 162,-186 127,-164 96,-248 464,-639l228 -295c225,-322 1096,-1406 1161,-1686l-87464 0c-1824,0 -1215,-112 -533,1056 278,476 1536,2127 1663,2354l28 53c4,6 12,21 16,28 4,7 13,22 18,29 59,99 42,57 86,140z"></path> <path class="fil3" d="M1342887 53649l44952 0c46,0 124,18 124,18l43608 -18c-61,-228 -986,-1411 -1154,-1635l-1194 -1595c-300,-390 -660,-256 -1137,-256l-4240 0c-529,0 -857,-62 -1335,-59 -10763,62 -21528,1 -32291,1 -7461,0 -14850,-58 -22360,-58 -7491,0 -14983,0 -22475,0 -199,375 -858,1253 -1157,1631l-1198 1707c-107,165 -92,74 -143,264z"></path> <path class="fil3" d="M1407062 72821l11383 0 0 23587 6040 0 0 -23587 11267 0c134,0 174,-41 174,-175l0 -5170c0,-134 -40,-174 -174,-174l-28690 0 0 5519z"></path> <path class="fil3" d="M1347534 47432l79449 0c-74,-204 -45,-104 -304,-335 -305,-271 -1434,-1548 -1824,-1719 -257,-113 -15824,-37 -16689,-37 -6989,0 -13977,0 -20966,0 -3494,0 -6866,-58 -10396,-58l-26134 0c-1288,0 -841,-186 -1815,799 -146,149 -178,173 -343,296 -234,174 -930,847 -978,1054z"></path> <path class="fil3" d="M1427099 116277l-79391 0 2081 2102c299,161 1016,48 1403,48l16901 -58c3460,0 56629,10 56869,-55l1796 -1622c147,-115 288,-216 341,-415z"></path> <path class="fil3" d="M1354851 123017l64988 0c116,0 1172,-889 1271,-995l928 -756c62,-68 78,-98 124,-167l-69634 0c176,333 1344,1196 1677,1460 129,103 499,458 646,458z"></path> <path class="fil3" d="M1352412 42552c20,2 177,20 184,20l69392 -20c-214,-319 -621,-526 -912,-773 -224,-190 -1164,-1035 -1415,-1082 -395,-72 -22221,-4 -23111,-4 -1176,0 -2167,-58 -3310,-58 -12854,0 -25709,0 -38563,0 -184,0 -451,326 -599,447 -199,160 -400,295 -578,467l-492 437c-10,7 -25,16 -35,23l-561 543z"></path> <path class="fil3" d="M1358626 125805c197,46 370,169 541,273l523 348c183,121 351,219 544,327 107,60 164,89 260,147 119,73 153,125 339,125l52850 0c258,0 1073,-508 1303,-672 90,-64 -7,-7 133,-98 485,-316 753,-281 829,-566l-56509 0c-226,0 -779,-80 -813,116z"></path> <path class="fil3" d="M1358510 37963l57322 0 -1839 -1124c-388,-213 -680,-172 -1074,-175l-45996 0c-682,-5 -6221,-26 -6464,51 -524,166 -909,585 -1378,831 -193,101 -490,194 -571,417z"></path> <path class="fil3" d="M1365828 33954l42454 0c-46,-40 -26,-29 -103,-71l-2162 -801 -37344 58c-961,-4 -1628,384 -2520,675l-288 118c-8,4 -26,13 -37,21z"></path> <path class="fil3" d="M1368441 130569l37808 0c257,0 1966,-735 2207,-755l-42396 -116c109,149 192,154 530,283l1851 588z"></path> <path class="fil3" d="M1384703 29597c-13,7 -34,1 -41,17 -7,17 -31,14 -42,16l-1509 75c-219,42 45,19 -215,56 -811,118 -677,-27 -1537,93 -353,49 -634,67 -987,116 -345,48 -678,105 -964,139l-1709 266c-18,6 -70,24 -86,31 -83,34 -67,31 -112,62l19224 0c-338,-214 -3570,-634 -4197,-684l-1606 -140c-363,-57 69,-79 -596,-55l-5623 8z"></path> <path class="fil3" d="M1377675 133242l3775 581c256,13 487,-27 731,29l4488 270c1549,174 3429,-17 5005,-123l3158 -385c404,-67 761,-124 1095,-182 255,-44 823,-69 1030,-248 -6491,0 -12797,58 -19282,58z"></path> <path class="fil3" d="M1378663 80664l40 -160c-10,-111 8,-39 -44,-119l-563 -549c-208,-208 -498,-606 -827,-630l-4 17126 -5288 0 6 -28885c946,0 641,-68 1104,261l-212 -313c-163,-131 -99,-91 -364,-99 -498,-14 -647,-106 -650,347l7 13428c0,5112 0,10225 0,15337l5517 0 0 -17022 1278 1278z"></path> <path class="fil3" d="M1359412 96408c-176,-156 -897,-47 -1192,-47l-18857 0 0 -28948c4349,0 8699,0 13049,0 919,0 12479,-76 13067,30l0 -141 -26192 0c-2,64 -16,158 -17,198 -6,168 2,19 8,220l-3 2741c55,1734 -22,4186 -4,5954l1 3168c-3,103 5,265 0,465l-1 3761c-1,78 7,77 9,228 1,87 -9,181 -9,237l4 5953c-5,164 -5,56 0,220l-3 1349c35,1332 -29,2850 -1,4139 6,257 61,258 -42,473l20183 0z"></path> <polygon class="fil3" points="1384703,29597 1384703,29538 1384635,29587 "></polygon> </g> <g id="_868396848"> <path class="fil3" d="M1023428 84780l440 9 14 383 395 28 0 369 380 0 12 403 402 5 5 405 407 10 9 397 400 22 0 373c463,0 407,-54 407,408l385 0 8 405 407 6 7 400 399 17 18 389 391 34 0 365 383 -1 10 404 403 4 6 405 404 13 13 393 396 27 0 370 380 -1 13 403 404 5 7 401 404 10 9 400 398 22 0 375c463,0 408,-56 408,407l385 0 8 404 404 6 7 403 404 16 17 384 1155 55 0 360 867 -7 0 -351 1157 -51 4 -399 401 -14 60 -772 358 0 -24 -2417 -373 1 -5 -415 -406 -7 -9 -402 -397 -7 -20 -398 -389 -21 0 -377 -401 -21 -5 -388 -393 0 -7 -400 -403 -6 -13 -405 -390 -15 0 -385 -403 -15 -6 -390 -392 1 -6 -398 -406 -9 -8 -405 -393 -11 0 -391 -402 -11 -8 -392 -390 1 -8 -399 -408 -8 28 -404 -425 -7 -21 -400 -392 -20 0 -375 -402 -21 -5 -388 -392 0 -7 -400 -404 -6 -12 -404 -394 -15 0 -382 -400 -17 -6 -391 -391 0 -6 -398 -406 -9 -9 -404 -391 -10 -13 -1198 14982 -23 10 -366 766 -38 17 -404 382 -8 36 -775 379 -16 2 -2008 -385 -11 -37 -799 -394 -11 0 -383c-428,0 -335,-45 -778,-45l0 -378 -14556 -3 1 -11334 18964 -13 0 -348 1225 -37 2 -387 404 1 6 -388 408 -12 13 -402 384 -20 20 -416 358 0 32 -806 360 0 1 -1972 -360 0 -24 -815 -373 0 -8 -423 -387 -9 -4 -404 -408 -8 -18 -388 -406 -17 -30 -373 -782 -24 0 -356 -46038 -5 -40 364 -781 21 0 369 -789 41 -2 401 -405 12 -52 782 -363 0 -16 793 -379 9 3 1983 374 65 22 780 373 -1 9 418 389 10 3 402 411 7 13 389 414 33 25 355 1194 33 0 347 10035 9c846,0 9125,-60 9740,33l-4 11298 -14944 22 -17 372 -768 36 1 376 -399 9 -36 796 -382 8 1 2040 371 9 39 768 398 14 11 391 771 31 8 382c5037,61 10303,23 15360,14l3 802 -384 0 -11 394 -405 9 -6 400 -403 8 -13 400 -388 19 -29 393 -374 0 1 384 -402 11 -7 400 -403 5 -9 405 -398 13 0 388 -400 9 -6 395 -390 0 -9 399 -403 7 -7 404 -397 10 -18 397 -393 23 0 376 -386 -1 -12 397 -401 9 -5 403 -403 7 -11 404 -392 17 -29 388 -375 0 1 386 -399 11 -8 402 -399 5 -9 406 -400 12 -22 389 -387 30 0 372 -388 0 -10 400 -400 8 -6 403 -401 9 -12 415 -381 17c-49,1397 -49,1358 -2,2763l395 4 6 420 409 6 13 391 805 41 0 353 1562 -4 -1 -357 815 -28 4 -407 405 -6 7 -404 401 -13 19 -395 376 0 -1 -378 405 -10 7 -408 400 -5 4 -406 405 -10 15 -394 397 -22 0 -372 382 0 7 -404 404 -6 3 -407 407 -7 11 -396 398 -19 24 -393 370 0 0 -384 400 -8 5 -407 407 -5 7 -397 404 -16 18 -401 371 0 -1 -379 403 -10 6 -404 406 -6 3 -400 410 -11 14 -396 395 -24 0 -374 379 0 7 -402 406 -6 4 -394z"></path> <path class="fil3" d="M1010522 44799l25855 21 0 343 1604 37 5 377 797 23 5 385 436 3 7 387 777 52 29 388 369 0 -1 385 405 7 7 403 403 8 9 398 398 21 0 382 381 -1 13 397 399 10 7 403 404 6 6 404 400 14 18 393 382 0c0,470 -66,410 404,410l0 385 407 5 5 408 401 10 14 390 393 26 29 385 371 0 0 388 401 8 6 407 401 8 10 394 402 21 0 380 381 -1 15 397 395 10 34 403 380 6 6 403 400 15 17 389 387 31 32 386 364 0 0 389 402 6 4 406 405 9 12 397 393 22 23 396 367 0 0 383 403 8 3 407 407 5 8 404 400 13 20 399 371 0 -1 377 404 10 5 405 407 6 4 405 406 10 14 401 375 0 0 375 405 11 7 405 403 6 3 407 407 7 11 401 396 16 25 393 369 0 0 382 403 8 4 407 407 5 7 405 401 12 19 396 373 0 0 380 397 10 45 785 392 7 9 429 377 14 52 790 332 0 50 1611 366 0 -15 26204 -345 0 -54 1256 -351 0 -19 804 -378 8 -44 793 -381 12 -23 413 -374 0 1 381 -413 35 -2 388 -395 0 -8 403 -397 7 -20 399 -390 19 0 379 -402 16 -4 392 -393 0 -6 402 -402 5 -15 403 -394 14 0 384 -400 13 -5 395 -392 0 -6 400 -404 6 -10 403 -395 10 -24 399 -377 0c0,460 54,406 -406,406l1 389 -404 9 -8 402 -398 7 -19 400 -390 19 0 379 -402 16 -4 392 -393 0 -5 402 -403 5 -14 403 -394 14 -1 384 -400 13 -5 395 -391 0 -6 400 -404 6 -10 404 -395 10 -24 398 -377 0c0,460 53,406 -406,406l0 390 -402 8 -8 402 -399 7 -19 400 -385 19 -35 390 -368 0 1 387 -402 10 -6 402 -402 5 -14 404 -390 13 -29 395 -373 0 1 384 -400 13 -7 400 -403 6 -10 404 -395 10 -23 399 -378 0c0,459 53,406 -407,406l1 388 -403 9 -7 403 -399 7 -18 400 -387 18 -34 390 -368 0 0 385 -412 10 -7 383 -792 44 -18 376 -791 23 0 365 -1597 30 -11 380 -26246 -22 0 -348 -1244 -29 -8 -374 -800 -22 -7 -378 -794 -44 -16 -381 -405 -24 -29 -379 -373 0 0 -386 -402 -6 -8 -404 -404 -9 -8 -400 -387 0 -6 -400 -413 -43 0 -360 -386 0 -10 -405 -397 -7 -6 -405 -402 -17 -17 -383 -393 -35 0 -369 -384 0 -12 -400 -405 -4 -6 -403 -402 -12 -12 -397 -387 0 -8 -400 -400 -5 0 -389 -397 -6 -7 -409 -405 -8 -8 -397 -391 0 -5 -396 -414 -44 0 -362 -385 1 -10 -404 -402 -6 -7 -401 -397 -19 -17 -388 -393 -34 0 -370 -381 1 -11 -405 -400 -5 -5 -409 -400 -11 -13 -390 -398 -27 1 -377 -381 0 -12 -401 -400 -7 -7 -405 -403 -8 -9 -397 -399 -20 -1 -381 -378 1 -36 -413 -388 -4 0 -393 -402 -7 -6 -401 -402 -14 -17 -395 -379 0 -18 -398 -393 -6 0 -392 -400 -6 -5 -405 -404 -11 -11 -393 -394 -24 -29 -384 -372 0 0 -390 -399 -9 -7 -403 -403 -8 -8 -401 -390 0 -10 -396 -399 -9 1 -388 -395 -11 -8 -413 -388 -6 -41 -808 -347 -1 -52 -789 -370 1 -49 -1607 -364 0 9 -25889 343 0 66 -1604 354 0 24 -795 381 -9 41 -793 382 -12 22 -412 375 0c0,-462 -66,-415 398,-415l-1 -387 404 -9 8 -403 400 -7 20 -396 386 -19 38 -388 368 0 0 -385 402 -10 6 -401 405 -5 14 -400 389 -15 30 -394 376 0 -1 -382 399 -12 7 -403 404 -6 10 -404 398 -9 0 -387 396 -10 47 -406 362 0 0 -389 403 -8 8 -403 399 -7 17 -399 388 -19 33 -391 367 0 -1 -388 401 -10 6 -403 405 -4 13 -401 391 -15 27 -392 383 -30 0 -368 391 0 7 -401 404 -6 9 -404 392 -11 23 -401 379 0c0,-460 -53,-403 407,-403l-1 -391 405 -8 7 -400 400 -7 17 -401 393 -18 0 -380 384 0 12 -397 401 -10 7 -401 403 -5 12 -404 392 -14 28 -394 373 0 0 -384 402 -12 8 -397 405 -5 8 -403 399 -10 19 -396 393 -24 0 -372 384 0 10 -401 404 -6 6 -404 402 -7 14 -402 390 -18 29 -391 371 0 -1 -381 779 -44 3 -396 426 -8 15 -377 792 -22 0 -364 1616 -47 5 -368zm50912 50898l372 -9 29 -2424c3,-8753 43,-17508 -21,-26261l-357 0 -46 -1202 -361 0 -30 -815 -387 -9 -23 -780 -383 -5 -8 -430 -393 -8 -8 -400 -393 -20 -45 -746 -378 0 -10 -406 -400 -5 -6 -410 -411 -8 -10 -394 -400 -21 0 -370 -376 0 -12 -404 -399 -6 -6 -411 -411 -6 -7 -398 -405 -16 0 -374c-440,0 -402,24 -402,-414l-382 1 -9 -406 -409 -4 -6 -401 -405 -13 -12 -394 -398 -26 0 -366 -378 0 -10 -405 -404 -4 -6 -406 -406 -10 -10 -398 -401 -22 0 -369 -376 0 -12 -404 -402 -5 -7 -407 -405 -6 -7 -403 -392 -20 -21 -396 -374 0 1 -390 -397 -11 -10 -399 -400 -5 -7 -407 -399 -14 -19 -391 -390 -29 0 -372 -386 0 -11 -400 -401 -6 -6 -404 -403 -9 -14 -396 -390 -24 -30 -385 -373 0 1 -389 -400 -9 -7 -402 -402 -7 -10 -400 -400 -18 0 -378 -404 -17 -10 -386 -383 1 -8 -409 -403 -5 23 -404 -433 -12 -17 -387 -393 -29 -1 -370 -383 0 -12 -401 -398 -6 -5 -409 -408 -9 -12 -392 -390 -25 -26 -390 -375 0 0 -381 -409 -6 -9 -390 -792 -48 -11 -374 -777 -32 -20 -384 -423 -2 -15 -392 -1185 -20 1 -368 -28699 -19 -13 375 -1193 25 0 356 -823 52 0 366 -778 31 -8 382 -785 42 -19 395 -395 20 0 378 -403 11 -1 397 -391 0 -4 402 -407 6 -12 404 -392 14 -25 402 -366 0 1 376 -407 12 -5 399 -408 6 -9 407 -400 10 0 385 -401 6 -4 400 -390 0 -7 396 -410 7 -7 401 -402 9 -17 396 -392 22 0 377 -388 0 -12 394 -404 9 -6 402 -399 7 -12 404 -391 17 -28 391 -376 0 1 382 -401 10 -8 405 -399 6 -8 406 -400 11 -22 388 -390 28 0 373 -384 0 -9 404 -401 7 -6 404 -401 9 -17 394 -398 21 0 372 -397 21 -4 395 -391 0 -5 402 -404 7 -11 401 -393 17 -27 392 -374 0 0 384 -399 12 -7 401 -403 6 -8 404 -402 11 -21 389 -386 30 1 375 -387 0 -10 399 -402 7 -6 401 -408 9 -15 392 -390 23 -32 386 -373 0 0 382 -404 8 -6 403 -405 6 -10 401 -396 18 -21 393 -370 0 1 395 -395 12 -7 408 -388 7 -48 789 -366 1 -41 789 -370 0 -2 436 -377 16 -48 1190 -365 0 14 29451 319 40c7,-12 26,10 46,17l23 795 364 0 36 803 389 4 0 409 378 7 47 784 401 13 16 393 395 28 0 368 378 -1 10 409 397 6 6 409 402 9 14 396 394 24 0 377 384 -1 13 399 398 9 7 405 402 7 11 397 401 18 0 379 398 17 8 392 388 0 8 402 404 4 7 404 399 13 19 391 390 30 0 372 386 -1 11 400 402 6 6 404 402 10 14 395 390 24 30 386 372 0 -1 389 400 8 7 403 403 7 10 401 391 19 24 395 375 0 -1 387 397 12 8 401 402 5 8 410 394 11 19 401 376 0 -1 379 402 14 9 399 402 7 5 406 402 9 14 398 395 20 0 376 387 -1 11 398 401 10 5 403 403 6 10 404 396 14 27 388 378 0 0 384 398 12 8 406 397 6 7 405 402 11 21 387 392 27 0 374 386 -1 10 401 400 7 4 406 406 8 14 394 390 22 28 394 368 0 0 379 415 8 7 389 790 43 14 380 409 0 9 384 808 24 0 373 829 27 12 374 29456 4 24 -366 1179 -35 0 -368 810 -31 4 -382 409 0 7 -384 786 -42 17 -398 389 -22 0 -378 388 1 11 -393 405 -9 5 -402 404 -7 12 -401 392 -17 28 -392 371 0 0 -388 398 -13 7 -397 407 -5 9 -406 393 -12 21 -401 372 0 25 -394 392 -6 0 -389 400 -7 7 -407 400 -9 17 -396 393 -22 0 -376 387 1 11 -397 401 -10 6 -402 403 -7 12 -401 392 -17 29 -391 374 0 -1 -385 402 -12 8 -398 400 -5 9 -408 397 -12 23 -391 383 0 -1 -382 397 -13 9 -402 400 -8 7 -404 403 -9 16 -392 395 -23 0 -377 384 1 12 -398 401 -9 6 -403 404 -7 11 -400 393 -18 26 -391 375 0 0 -386 398 -10 8 -402 403 -5 9 -404 398 -13 20 -391 389 -29 0 -372 387 0 10 -400 402 -6 6 -403 406 -9 14 -394 386 -25 31 -388 371 0 -1 -388 401 -9 6 -401 408 -6 10 -399 391 -19 23 -397 370 0 -1 -393 393 -14 7 -401 397 -6 47 -787 380 -17 0 -404 387 -10 22 -811 367 0 4 -212 31 -977z"></path> <polygon class="fil3" points="1010528,107392 1010906,107399 1010943,108210 1011341,108216 1011341,108596 1012102,108635 1012109,109023 1014160,109022 1014170,108643 1014955,108603 1014955,108216 1015353,108206 1015382,107409 1015767,107378 1015762,96927 1015373,96919 1015366,96488 1014987,96478 1014960,96077 1014570,96070 1014570,95692 1014139,95686 1014133,95303 1012534,95308 1012517,95679 1011739,95706 1011740,96085 1011334,96092 1011324,96495 1010928,96504 1010924,96932 1010527,96940 "></polygon> <polygon class="fil3" points="1025896,107410 1026265,107410 1026259,97714 1025920,97713 1025860,96510 1025468,96505 1025448,96100 1025047,96094 1025047,95696 1022262,95716 1022231,96101 1021832,96104 1021832,96497 1021435,96505 1021432,96936 1021028,96942 1021042,107789 1021425,107792 1021440,108226 1021824,108233 1021824,108625 1022232,108633 1022238,109016 1023043,109036 1023050,109413 1024253,109405 1024264,109038 1025060,109019 1025078,108629 1025477,108618 1025477,108233 1025863,108216 "></polygon> <polygon class="fil3" points="1008912,92460 1009277,92460 1009273,90478 1008904,90478 1008900,90051 1008506,90037 1008499,89640 1008095,89627 1008079,89238 1007257,89214 1007257,88860 997609,88858 997609,89209 996770,89233 996760,89611 996348,89631 996342,90017 995963,90017 995956,90436 995574,90441 995583,92845 995966,92860 995972,93273 996361,93272 996368,93662 996787,93674 996798,94062 1007680,94071 1007694,93690 1008485,93646 1008491,93246 1008874,93246 1008877,93034 "></polygon> <polygon class="fil3" points="1036419,107017 1036773,107017 1036767,97715 1036417,97715 1036363,96516 1035965,96512 1035948,96105 1035544,96100 1035544,95703 1032757,95711 1032757,96086 1032343,96092 1032332,96495 1031945,96504 1031908,97307 1031533,97331 1031534,107409 1031907,107419 1031943,108231 1032325,108239 1032325,108628 1032735,108636 1032740,109018 1033547,109036 1033555,109413 1034758,109405 1034770,109038 1035565,109020 1035583,108628 1035982,108618 1035982,108230 1036367,108214 "></polygon> <polygon class="fil3" points="1037628,92446 1037988,92446 1038007,92863 1038387,92886 1038389,93288 1038773,93288 1038782,93681 1039204,93685 1039223,94079 1050106,94063 1050111,93683 1050536,93664 1050544,93281 1050926,93281 1050935,92863 1051329,92858 1051317,90449 1050931,90434 1050928,90024 1050541,90024 1050533,89624 1050135,89614 1050111,89235 1049284,89211 1049284,88851 1040037,88853 1040037,89203 1038816,89242 1038812,89633 1038401,89651 1038395,90044 1037999,90074 1037983,90848 1037612,90848 "></polygon> <path class="fil3" d="M1010527 69432l372 8 37 772 406 6 6 398 786 31 7 376c329,23 698,13 1031,13 576,-2 584,131 584,-379l793 -26 10 -397 398 -10 0 -398 387 -6c93,-915 16,-1870 9,-2793l-395 -4 -11 -417 -402 -6 0 -379 -795 -36 0 -373 -1608 22 0 355 -786 19 -5 403 -407 6 -43 789 -386 24 12 2002z"></path> <path class="fil3" d="M1057406 81916l353 0 2 -1173 -357 0c0,-210 -9,-402 -19,-610 -12,-248 -59,-405 24,-552l-814 -67 -11 -388 -429 -11 -17 -386 -1985 8 -6 372 -777 32 -7 405 -400 8 -31 779c-444,0 -389,-170 -391,814 -1,391 13,780 13,1176l386 5 4 436 394 7 10 400 409 13 23 381c472,0 943,51 1414,44 456,-7 902,-50 1361,-50l4 -397 416 -7 6 -408 393 -14 32 -817z"></path> <polygon class="fil3" points="1031536,69439 1031907,69448 1031943,70218 1032347,70224 1032354,70622 1033143,70648 1033150,71033 1034761,71025 1034764,70655 1035554,70628 1035565,70226 1035956,70216 1035999,69460 1036384,69433 1036376,67408 1036005,67395 1035954,66611 1035552,66606 1035534,66208 1034756,66189 1034756,65816 1033149,65831 1033149,66185 1032362,66205 1032356,66607 1031951,66613 1031907,67397 1031523,67425 "></polygon> <polygon class="fil3" points="1033176,47185 1032368,47224 1032357,47619 1031947,47625 1031903,48415 1031537,48415 1031536,50441 1031897,50441 1031951,51227 1032352,51236 1032356,51638 1033143,51660 1033148,52039 1034750,52040 1034764,51660 1035547,51635 1035556,51238 1035963,51231 1036007,50445 1036373,50445 1036371,48409 1036007,48409 1035955,47625 1035548,47617 1035544,47218 1034731,47189 1034731,46831 1033176,46834 "></polygon> <polygon class="fil3" points="1022655,47201 1022220,47205 1022220,47576 1021445,47636 1021401,48418 1021026,48429 1021027,50411 1021395,50441 1021446,51226 1021846,51234 1021851,51638 1022668,51668 1022668,52021 1024234,52028 1024234,51676 1025046,51637 1025057,51245 1025461,51238 1025504,50447 1025869,50447 1025867,48406 1025502,48406 1025449,47625 1025045,47617 1025041,47216 1024227,47185 1024228,46831 1022671,46834 "></polygon> <polygon class="fil3" points="1012151,47203 1011716,47208 1011716,47578 1010939,47636 1010897,48423 1010522,48433 1010524,50408 1010892,50435 1010943,51222 1011347,51229 1011350,51634 1012165,51665 1012165,52019 1013728,52028 1013728,51676 1014541,51638 1014552,51244 1014955,51237 1015003,50450 1015364,50450 1015362,48403 1015000,48403 1014943,47625 1014541,47617 1014536,47216 1013722,47185 1013722,46831 1012168,46836 "></polygon> <polygon class="fil3" points="993967,81972 994338,81973 994344,79931 993980,79931 993929,79153 993148,79099 993120,78728 990724,78724 990712,79098 989931,79144 989879,79922 989512,79952 989508,82350 989891,82360 989896,82773 990298,82779 990310,83167 990739,83178 990755,83557 993098,83552 993101,83160 993528,83155 993534,82750 993930,82742 993967,82206 "></polygon> <polygon class="fil3" points="1021028,113856 1021413,113865 1021419,114288 1021814,114294 1021822,114690 1022240,114702 1022259,115078 1024649,115084 1024659,114708 1025441,114660 1025493,113879 1025865,113851 1025864,111472 1025475,111464 1025471,111040 1025075,111034 1025060,110645 1024637,110633 1024618,110253 1022266,110278 1022267,110642 1021835,110647 1021829,111042 1021430,111052 1021421,111475 1021038,111489 1021014,112937 "></polygon> <path class="fil3" d="M1010526 113848l386 7 5 429 394 7 8 399 415 11 20 376 2393 8 10 -374 778 -51 55 -782 367 0 -7 -2419 -378 0 -4 -415 -403 -6 -13 -395 -417 -12 -20 -379c-1056,-24 -1457,28 -2352,28l0 364 -429 5 -5 399 -402 9 -9 422 -386 13 -23 1399 17 957z"></path> <path class="fil3" d="M993971 92484l377 -20 -5 -1997 -385 -7 -5 -427 -397 -7 -10 -401 -408 -13 1 -372c-1094,-30 -1317,-46 -2418,-11l-13 369 -773 55 -55 774 -368 31c-46,1149 -37,1182 -1,2388l388 8 6 418 398 6 10 396 424 10 16 379 2349 -4 4 -390 428 -5 7 -401 394 -10 36 -542 0 -227z"></path> <path class="fil3" d="M989520 71847l376 0 5 419 398 7 12 391 421 12 20 378 947 18c1296,13 1068,43 1068,-385l770 -32 7 -399 399 -9 10 -426 386 -12 3 -2349 -385 -6 -4 -432 -396 -7 -9 -399 -412 -12 -21 -380 -2393 -5 -11 372 -776 51 -53 784 -369 0 7 2183 0 238z"></path> <polygon class="fil3" points="1031534,113856 1031918,113865 1031924,114289 1032319,114296 1032326,114693 1032744,114704 1032744,115075 1035155,115084 1035164,114701 1035583,114697 1035590,114298 1035982,114287 1035997,113874 1036368,113848 1036367,111477 1035978,111470 1035974,111046 1035575,111039 1035562,110646 1035140,110635 1035123,110254 1032775,110251 1032769,110640 1032339,110645 1032333,111040 1031933,111051 1031924,111470 1031542,111486 1031515,112891 "></polygon> <path class="fil3" d="M1052550 92474l366 8 30 786 393 7 9 400 411 13 21 401 2773 -26 4 -399 407 -7 58 -777 376 0 -17 -2441 -379 0 -5 -413 -402 -6 -12 -391 -423 -11 -19 -380c-408,0 -814,-14 -1223,-11 -922,7 -776,-67 -777,383l-772 36 -6 403 -402 9 -29 777 -385 14 3 1625z"></path> <path class="fil3" d="M1052541 70872c1,617 -85,590 387,590l27 779 403 7 9 396 765 37 21 377 2004 1 9 -384 424 -4 7 -395 402 -10 11 -407 370 0 7 -2443 -367 0 -51 -781 -412 -6 -11 -395 -2771 -9 -7 390 -418 5 -7 403 -389 11 -31 778 -374 19 -8 1041z"></path> </g> <g id="_868405584"> <path class="fil3" d="M1165417 88176c-2970,0 -5157,-571 -7439,-2183 -4693,-3313 -6449,-9728 -3936,-14747 1976,-3947 5927,-6876 10383,-6876 4287,0 7040,1310 9746,4339 3867,4329 3585,11677 -645,15872 -2022,2006 -5043,3595 -8109,3595zm-20930 -12498c0,3668 386,6284 1884,9325 1183,2402 2688,4467 4587,6224l1988 1583c980,734 1355,847 2212,1359 2220,1328 6216,2339 8672,2339 4385,0 5667,-344 9437,-1871 789,-320 2358,-1261 3019,-1742 2966,-2159 4958,-4433 6655,-7826 3854,-7703 1845,-17435 -4554,-23353 -3196,-2956 -8336,-5281 -12871,-5281 -3655,0 -6379,358 -9423,1884 -2918,1464 -3996,2269 -6276,4537l-1601 1970c-334,483 -665,964 -947,1433 -326,542 -563,1012 -865,1615 -936,1870 -1917,5051 -1917,7804z"></path> <path class="fil3" d="M1281866 84506c0,4563 -2298,8910 -6703,9861 -2744,593 -5713,67 -7804,-1801 -1023,-914 -1895,-1864 -2442,-3212 -3430,-8462 4185,-16480 12454,-12355 654,327 1107,683 1662,1115 543,423 959,1008 1444,1333 0,-496 -3,-993 1,-1489 6,-740 124,-903 -322,-1264 -1756,-1421 -4094,-2603 -6622,-2603 -2679,0 -4769,386 -6902,1926 -1574,1137 -2567,2443 -3447,4190 -1397,2771 -1458,7186 -101,9987 1005,2072 2854,4171 4995,5123 4553,2025 10213,1007 13292,-2974 2273,-2940 2479,-5346 2479,-9424l0 -18747 -1984 0 0 20334z"></path> <path class="fil3" d="M1120979 87482l0 18052 1885 0 0 -17656c0,-2998 228,-6230 1954,-8560 838,-1132 1504,-1773 2748,-2509 2618,-1547 6523,-1305 9245,494 314,207 351,251 612,480 3331,2920 4178,7356 2517,11500 -412,1028 -1097,1911 -1826,2637 -876,874 -1403,1241 -2552,1812 -1734,861 -4262,977 -6111,453 -3257,-922 -3932,-2450 -5099,-3232 0,2460 -349,2369 1109,3355 2479,1677 3946,2001 7024,2001 2036,0 4261,-861 5769,-1968 715,-525 1422,-1191 1984,-1884 1398,-1724 2464,-4339 2464,-6662 0,-2140 -51,-3449 -926,-5422 -1584,-3574 -5178,-6282 -9191,-6282 -2552,0 -3608,103 -5887,1255 -2558,1291 -4525,3890 -5223,6680 -392,1566 -496,3496 -496,5456z"></path> <path class="fil3" d="M1204696 85299c0,-1696 220,-2683 750,-4011 327,-819 728,-1449 1265,-2108 2189,-2688 5353,-3922 8774,-3182 5497,1190 8462,7389 6216,13015 -363,910 -1129,2061 -1802,2760 -743,773 -1558,1385 -2572,1893 -534,267 -1028,450 -1679,601 -5845,1357 -10952,-3191 -10952,-8968zm-1984 -793l0 1388c0,3469 2232,6648 4520,8375 527,397 982,677 1596,984 2817,1406 6615,1446 9424,32 884,-445 2367,-1412 3023,-2136 788,-869 1660,-1956 2112,-3045 340,-821 425,-870 710,-1869 629,-2200 425,-4832 -293,-6967 -140,-416 -232,-535 -389,-900 -1482,-3472 -5463,-6277 -9296,-6277 -2970,0 -4585,442 -6886,2041 -2250,1565 -4521,5062 -4521,8374z"></path> <path class="fil3" d="M1186842 79050c0,1254 32,2003 712,3057 2432,3770 10804,3318 12880,6065 1478,1955 999,4264 -860,5197 -634,319 -889,433 -1693,589 -1535,297 -9181,169 -11138,169l0 1786 9026 0c2475,0 5380,-660 6647,-2578 1224,-1852 1049,-4502 -382,-6266 -324,-398 -676,-686 -1091,-992 -1206,-890 -2837,-1434 -4341,-1810 -1487,-372 -5001,-1308 -6171,-2061 -899,-578 -1510,-1162 -1670,-2503 -119,-994 392,-2203 1297,-2793 881,-574 2028,-736 3429,-736l8134 0 0 -1686 -8729 0c-1587,0 -3141,485 -4109,1148 -579,396 -956,770 -1331,1347 -264,407 -610,1415 -610,2067z"></path> <path class="fil3" d="M1224832 85894c0,4067 1201,7737 4462,9425 3515,1821 8687,1245 11139,-2056 1583,-2130 2055,-4251 2055,-7071l0 -11704 -1984 0 0 13192c0,1018 -293,2084 -580,2793 -1942,4803 -8424,5580 -11634,1585 -1288,-1602 -1574,-3520 -1574,-6362l0 -11208 -1884 0 0 11406z"></path> <path class="fil3" d="M1101835 85894c0,4067 1202,7737 4463,9425 3515,1821 8687,1245 11139,-2056 357,-480 612,-820 899,-1382 841,-1643 1155,-3714 1155,-5689l0 -11704 -1983 0 0 13192c0,2084 -767,3506 -1941,4903 -1503,1789 -4369,2369 -6666,1819 -1531,-367 -2652,-1155 -3608,-2344 -1287,-1602 -1573,-3520 -1573,-6362l0 -11208 -1885 0 0 11406z"></path> <path class="fil3" d="M1243975 84605l0 11308 1885 0 0 -11209c0,-3675 643,-6621 3735,-8168 2764,-1383 6540,-775 8382,1507 1208,1497 1770,3103 1770,5768l0 12102 1884 0 0 -11705c0,-3017 -680,-5395 -2059,-7066 -1456,-1765 -3563,-3051 -6074,-3051 -2078,0 -3142,-3 -5061,990 -3495,1811 -4462,5763 -4462,9524z"></path> <path class="fil3" d="M1165417 69826l0 595c0,1319 1457,2777 2777,2777l694 0c1320,0 2778,-1458 2778,-2777l0 -595c0,-1320 -1458,-2778 -2778,-2778l-694 0c-1320,0 -2777,1458 -2777,2778z"></path> </g> <path class="fil3" d="M1729098 65147c-2403,-3950 -1851,-4409 -5308,-4409 -1774,0 -56,1786 398,2459 694,1028 1059,1469 1726,2562l4287 6573c3121,4298 5584,9016 8698,13307l10897 17109 -9145 0c-558,-1056 -1129,-1697 -1878,-2694l-2016 -2556c-1257,-1160 -1836,-2727 -2718,-4141 -1260,-2020 -3676,-380 -3676,1675 0,6110 4573,5944 4573,10002 0,1168 -2003,2450 -2946,2770 -1510,513 -2816,681 -4767,663 -2873,-28 -5218,501 -7996,577 -3683,101 -18885,337 -20014,4564 753,373 -235,285 857,285 2118,0 4398,191 6453,-120 2637,-399 11948,251 14064,751 1326,313 2984,388 4347,798l4070 1074c1371,428 6421,2035 7075,2927l-78590 0c336,-929 -33,-231 755,-960l2549 -2023c4439,-2856 10152,-2457 15235,-3340 823,-143 1840,-393 2657,-487 4168,-482 3457,-1116 8265,-1166 1348,-14 1711,-21 2025,-1146 604,-2163 -2664,-4024 -4622,-4024 -1367,0 -1942,275 -3392,610 -2527,585 -5468,304 -5468,-3182 0,-3482 2477,-6674 3677,-9468 2096,-4879 5598,-11445 6943,-16206 236,-835 1103,-5455 240,-6477 -723,16 -293,-408 -1042,520 -50,62 -520,1009 -583,1142l-6000 11147c-1934,3275 -4013,5358 -5751,7966 -2169,3256 -8984,7567 -9772,10519l-7145 0c1085,-2051 6702,-9775 7145,-11431l-3430 0c-1709,3230 -8293,11858 -8859,14289l10002 0c-287,1235 -5445,8606 -6685,10461 -1177,1760 -3362,4143 -3888,6114l105167 0c-233,-1000 -7312,-11540 -8045,-12531 -555,-750 -799,-1283 -1453,-1977 -658,-700 -1126,-1003 -1647,-1781 1683,0 9915,435 10608,-258 710,-710 170,-393 -38,-810l-7943 -12134c-759,-1191 -1352,-2127 -2111,-3318l-7454 -11409c-414,-569 -721,-961 -1052,-1519l-7279 -11297z"></path> <path class="fil3" d="M1700642 63024c4729,0 4825,2151 8074,5644 694,746 805,883 1437,1706 213,277 386,477 644,785 38,46 93,110 131,155l261 311c162,191 178,220 396,461 2898,3197 5899,7068 8847,10014 1994,1993 4978,4684 7931,4930 -48,-2131 -1797,-3242 -3472,-5387 -328,-420 -528,-787 -814,-1187 -387,-543 -568,-682 -1023,-1263 -2363,-3008 -4895,-7608 -6646,-11072l-1421 -3152c-976,-2275 -1457,-4520 -2160,-6699 -392,-1215 -608,-2137 -1070,-3217 -394,-920 -1129,-2049 -1684,-2888 -586,-886 -1018,-1733 -1673,-2614l-3471 -5388c-315,-470 -584,-846 -917,-1378 -321,-513 -473,-905 -798,-1338l-5025 6836c-3907,5708 -1311,4760 -2853,9150l-2027 6832c-864,2772 -328,2950 -1655,5778 -529,1127 -1278,1648 -71,2616 783,628 1624,794 2676,299 1613,-758 3327,-2564 3696,-4333 169,-808 637,-5601 2687,-5601z"></path> <path class="fil3" d="M1669206 77885c3053,0 2753,531 4592,-2553l10399 -16179c260,-400 244,-345 466,-676l563 -866c702,-1064 1336,-2038 1998,-3147l15418 -24019c993,265 1399,1353 2557,3159l5327 8407c3784,5540 2143,5295 6691,5295 -131,-1576 -7508,-12346 -8766,-14381 -1000,-1619 -4504,-7736 -5809,-8195l-8572 13432c-757,1067 -1421,2047 -2164,3266l-6575 10000c-458,756 -524,919 -1002,1570 -50,68 -198,256 -247,325l-15146 23199c-371,558 -990,1363 270,1363z"></path> <path class="fil3" d="M1717034 142657c-1389,-831 -1399,-1845 -1672,-3780l-145 -8408c0,-315 23,-360 55,-627 169,-1406 -406,-1088 2803,-1088 4982,0 3638,3304 2068,3753 -639,182 -1168,21 -2100,194 -1852,343 -2099,1325 -2255,3198 365,-31 7145,-3012 7145,3143 0,3266 -3147,5259 -5899,3615zm6185 -8759c780,-1474 1470,-3127 681,-4954 -1484,-3436 -5798,-2476 -11255,-2476l0 11717c0,8090 7680,8985 11057,5628 801,-797 1803,-2679 1803,-4199 0,-4678 -702,-3350 -2286,-5716z"></path> <path class="fil3" d="M1670063 145329c2760,0 -1858,-16289 3716,-16289 1588,0 2293,-233 3322,679 367,326 591,707 774,1226 811,2290 476,11382 476,14384l2572 0 0 -12860c0,-8518 -12860,-8587 -12860,858 0,13044 -836,12002 2000,12002z"></path> <path class="fil3" d="M1686067 151045c0,-2389 -252,-12198 430,-14132 815,-2313 2548,-2158 4143,-2158 2921,0 4616,4929 1798,7515 -2434,2233 -4217,285 -5799,-84l857 3143c894,75 1015,286 2001,286 7726,0 8285,-8259 5085,-11658 -2610,-2772 -7710,-2434 -9941,1087 -1078,1700 -1157,3250 -1147,5998 5,1125 -181,8619 130,9473 375,1031 1562,717 2443,530z"></path> <path class="fil3" d="M1700356 137899c0,-1276 1481,-3144 2572,-3144l1715 0c3914,0 3276,5744 3290,6209l139 4365 2287 0 198 -3660c19,-1411 -189,-4564 -603,-5652 -1527,-4013 -7198,-5373 -10540,-1918 -1840,1902 -1630,3316 -1630,5801 0,2938 2664,5715 6287,5715 2504,0 3085,-800 3144,-3429 -1846,977 -4053,1877 -5890,-111 -1100,-1190 -969,-2609 -969,-4176z"></path> <path class="fil3" d="M1735222 141043c0,825 -1991,3181 -4171,1606 -1578,-1141 -1072,-5788 -978,-7599 166,-3171 314,-2867 -2567,-2867 -501,2150 -286,3437 -286,6002 0,9218 7668,8868 9868,4724 3141,-5915 -4730,-9387 -6135,-6696 -1758,3368 874,1686 1411,1686 2555,0 2858,976 2858,3144z"></path> <path class="fil3" d="M1710930 79314l-1122 -7737c-382,-1350 -2562,-4497 -4022,-4837 174,2092 1300,9963 2518,11484 181,225 901,1026 1126,1207 360,290 1500,881 1500,-117z"></path> <path class="fil3" d="M1715217 103605c745,1112 7245,4237 8560,4300 1430,69 3124,-13 4586,-13 -278,-1040 -120,-565 -924,-1076l-2631 -1370c-1854,-1040 -7502,-4960 -9591,-1841z"></path> <path class="fil3" d="M1754369 128468c680,-1014 1029,-623 1143,-2000 -1810,40 -1586,863 -2858,1714l0 -1714 -1143 0c-388,1664 -222,831 -113,2039l-173 2533c-2010,-1346 -962,572 -2572,572 -2737,0 -2307,-4001 -286,-4001 1556,0 969,1186 2573,286 -959,-2649 -5430,-1103 -5430,857 0,4604 3418,4370 4700,3557 804,-509 516,-187 730,-985 40,58 74,151 96,190 683,1225 611,1046 1332,1239 443,-922 286,-1558 286,-2858 2869,-607 780,1754 2286,2858 448,-328 572,-53 572,-857 0,-3240 -20,-1752 -1143,-3430z"></path> <path class="fil3" d="M1677208 99604c974,-81 1507,-547 2327,-1102 4139,-2795 7961,-3971 7961,-8328 -1379,-293 -1067,-87 -2978,1308 -2469,1802 -4339,2435 -5552,4736l-1758 3386z"></path> <path class="fil3" d="M1715503 83315c0,-1866 -228,-5526 -1147,-7139 -369,-646 -1075,-1241 -1658,-2060 -345,-484 -347,-504 -744,-970 -554,-651 -353,-527 -1024,-977 -544,1135 432,5199 735,6696 400,1980 1569,4399 3838,4450z"></path> <path class="fil3" d="M1709787 105034c337,1262 1441,1438 2571,2002 3878,1936 2826,1428 8003,1428 1093,0 104,87 857,-286 -596,-814 -7118,-4001 -8002,-4001 -1855,0 -2659,-251 -3429,857z"></path> <path class="fil3" d="M1680352 93031c546,-127 8287,-4154 8287,-7430l0 -1143c-1378,31 -4253,2089 -5264,3023 -325,300 -195,164 -417,441 -220,274 -230,328 -454,689l-2152 4420z"></path> <path class="fil3" d="M1739508 132755c358,-1535 572,-1342 572,-3429 790,578 551,597 869,1703 242,847 371,914 560,1726 1949,-162 1076,-2038 2286,-3429 307,1315 96,2473 635,3053 833,897 333,168 508,90 977,-394 638,-85 318,-1397 -674,-2763 69,-3580 -1461,-4604 -1554,1040 -759,2805 -2001,3715 -645,-2770 -545,-3376 -2000,-3715 -507,757 -1236,4075 -1125,5186 131,1311 -416,437 839,1101z"></path> <path id="vtb_bank_logo.svg" class="fil3" d="M884164 95903l0 -16532 -11586 0 0 -7771 33334 0 -1301 3850 -1302 3851 -5051 37 -5051 37 0 33060 -9043 0 0 -16532 0 0zm-40976 -3965l0 -20355 8937 57c9631,62 9536,55 11733,852 1477,536 2472,1197 3796,2520 1017,1015 1333,1446 1870,2543 846,1732 1144,3208 1034,5134 -188,3290 -1775,6042 -4338,7522l-744 430 1160 604c1401,729 3135,2302 3937,3573 1521,2407 1962,5887 1154,9100 -152,604 -570,1694 -928,2422 -534,1084 -861,1531 -1811,2473 -1327,1315 -2276,1923 -4015,2572 -2327,868 -2904,908 -12837,908l-8948 0 0 -20355zm16284 12255c881,-431 1366,-929 1864,-1916 1225,-2426 503,-5648 -1496,-6667 -782,-399 -2494,-571 -5207,-524l-2331 40 -38 4591c-20,2525 -3,4679 38,4786 61,159 641,184 3222,138 3099,-55 3160,-62 3948,-448l0 0zm-702 -17061c2190,-741 3088,-4157 1604,-6103 -940,-1232 -2012,-1516 -5717,-1516l-2426 0 0 7947 3002 -73c1872,-46 3204,-142 3536,-254l1 -1zm49415 4744l0 -20417 13635 0c7500,0 13636,48 13636,106 1,58 -582,1807 -1296,3885l-1297 3780 -15494 0 0 7592 4062 78c2701,52 4492,151 5343,298 4508,775 7477,2791 9184,6233 1038,2093 1243,3097 1244,6075 0,2292 -36,2678 -364,3896 -1353,5020 -5131,8027 -10987,8745 -703,86 -4599,147 -9432,147l-8234 0 0 -20417 0 -1zm14938 12505c2189,-284 3405,-1421 3855,-3602 481,-2330 -402,-4644 -2100,-5499 -1039,-524 -1969,-648 -4831,-648l-2678 0 0 9890 2367 -4c1301,-2 2826,-64 3387,-137l0 0zm-131653 -12672c-1818,-1236 -5419,-4673 -7167,-6840 -2660,-3298 -4852,-7298 -6251,-11410 -691,-2030 -694,-1955 231,-4543 1268,-3543 3499,-7549 5902,-10598 1208,-1532 4741,-5017 6278,-6195l1321 -1011 35839 0 -356 1166c-196,641 -545,1659 -776,2261l-420 1095 -33029 0 -819 692c-440,355 -892,762 -1314,1124l-495 433 17274 5c9500,4 17273,34 17273,69 0,111 -1004,1802 -1872,3151l-841 1306 -17885 36 -17885 36 -675 989c-371,544 -677,1069 -681,1166 -5,141 3595,177 17547,177l17552 0 -1127 1140c-620,628 -1706,1613 -2413,2191l-1286 1049 -32656 0 -421 1166 -420 1165 422 1196c1849,5239 5146,10166 9190,13734l1096 967 14553 0c8004,0 14552,-21 14552,-46 0,-146 -814,-2012 -1299,-2976 -1323,-2632 -3022,-4976 -5156,-7115l-1304 -1307 -13888 -36 -13889 -36 -636 -1277c-349,-703 -776,-1673 -947,-2155l-313 -877 31199 0 2071 2008c3985,3864 6732,7880 8471,12383 545,1411 1254,4030 1412,5214l99 742 -17857 0c-16497,0 -17882,-18 -18205,-238l1 -1z"></path> <path class="fil3" d="M1560387 53593c5024,-1447 9547,2259 10560,6192 1403,5450 -2375,10030 -6317,10974 -10978,2628 -16467,-13646 -4243,-17166zm-33700 8252c551,1700 34239,35150 35817,35933 1625,-956 28633,-27967 32674,-32269 3523,-3751 660,-5827 -1810,-8288 -3798,-3783 -8646,-8571 -13119,-13123 -4493,-4573 -8656,-8754 -12877,-12875 -6075,-5932 -5603,-4536 -14785,4594 -5027,4999 -22647,22153 -25900,26028z"></path> <path class="fil3" d="M1535474 91734c10269,-2985 16001,13887 4130,17236 -10544,2975 -16768,-13561 -4130,-17236zm-27187 6c10838,-4316 17109,12714 5900,16662 -10468,3688 -17555,-12021 -5900,-16662zm51548 8781c-757,-1898 -27002,-27525 -31114,-31597 -1391,-1378 -3021,-3706 -4893,-4274 -10800,11326 -21934,21607 -32456,32432 -3435,3534 -705,5491 1738,7909l26043 25988c6142,6053 5869,4664 14703,-4313 4363,-4434 8501,-8468 12911,-12878l13068 -13267z"></path> <path class="fil3" d="M613486 109311c2383,1286 2993,2458 7175,4090 6528,2547 12857,2267 19340,88 2206,-742 5881,-2885 7266,-4242 636,221 2378,1604 3526,2262 4117,2363 8510,3706 13605,3704 5199,-1 9376,-1255 13662,-3674 1343,-757 2311,-1759 3461,-2266 8760,6525 19415,7994 29329,2910 19278,-9885 19228,-37749 333,-47875 -4434,-2376 -9918,-3679 -15946,-2953 -6529,787 -8946,2594 -13731,5648 -1737,-585 -11128,-9700 -26572,-4149 -1399,503 -2837,1235 -3930,1868 -1257,728 -2386,1683 -3508,2344 -1326,-628 -2593,-2277 -7294,-4138 -6135,-2428 -13180,-2330 -19284,-84 -1505,554 -4371,2012 -5702,2976 -602,436 -1100,889 -1730,1201 -972,-491 -1843,-1291 -2870,-1906 -18371,-10985 -41137,2102 -41082,23097 43,16467 14054,28581 30272,26751 6402,-723 9713,-3053 13680,-5652zm72338 -37807c1065,2247 1880,2289 3835,7113 1085,2675 1746,6087 1743,9389 -4,4864 -1162,9379 -3379,13320 -654,1163 -1667,2430 -2145,3376 1339,1684 6909,4101 10056,4253 5299,257 8188,-166 12252,-2305 14113,-7429 15259,-28314 321,-36782 -5380,-3050 -11792,-3440 -17966,-1054 -1650,638 -3361,1691 -4717,2690zm-4255 28665c745,-1435 2016,-3122 2593,-5163 1596,-5643 1570,-7984 25,-13610 -351,-1276 -1967,-4770 -2887,-5150 -3754,4803 -4706,12515 -2585,18680 355,1034 684,1946 1132,2786 270,506 490,919 739,1310 498,782 468,835 983,1147zm-29723 -28679c556,1469 5526,6337 5606,16516 28,3598 -675,6581 -1668,9509 -454,1339 -1102,2734 -1749,3839l-2164 3348c835,1099 3522,2326 5195,3002 5541,2239 11981,1713 17258,-1108 1000,-535 1803,-1177 2654,-1648 -147,-801 -1304,-2168 -1989,-3412 -3758,-6827 -4743,-15594 -1872,-22762 724,-1810 1719,-3882 2776,-5451 461,-683 948,-1001 1053,-1807 -2204,-2483 -8479,-4260 -12548,-4246 -2533,9 -5016,388 -7111,1257 -1244,516 -3092,1328 -4136,2041 -505,346 -831,687 -1305,922zm-4350 28695c996,-994 2064,-3523 2694,-5154 761,-1969 1110,-4413 1118,-6819 11,-3804 -1598,-10018 -3812,-12040 -2202,1516 -3898,8314 -3891,12043 7,3681 1156,8424 3363,11443 408,557 -36,214 528,527zm-29630 -28618c1117,2191 1912,2215 3845,6984 1123,2766 1662,6046 1692,9455 30,3495 -495,6429 -1548,9394 -1326,3736 -3724,6746 -3901,7302 628,1068 3880,2529 5239,3068 5277,2092 12354,1653 17271,-1235 929,-545 2090,-1227 2562,-1833 -575,-1118 -1477,-2097 -2129,-3295 -2196,-4035 -3424,-8375 -3433,-13190 -7,-3583 642,-6233 1618,-9265 654,-2031 1643,-3788 2726,-5502 429,-680 881,-1137 1232,-1728 -700,-1158 -3681,-2462 -5216,-3087 -4343,-1765 -10226,-1839 -14544,-106 -2095,841 -4056,1817 -5414,3038zm-4380 28559c799,-586 2181,-3495 2594,-4815 1843,-5885 1903,-11158 -1101,-16834 -361,-682 -920,-1781 -1493,-2253 -2068,1884 -3927,7923 -3924,11988 4,3335 1747,10141 3924,11914zm-4473 4821c-148,-854 -519,-1090 -985,-1794 -6316,-9552 -6017,-22750 1074,-31470 -1622,-1670 -6651,-4118 -10036,-4289 -6737,-341 -11943,981 -16598,5260 -9165,8427 -8849,22897 -368,30661 7698,7047 19056,7705 26913,1632z"></path> <path class="fil3" d="M65363 65936c0,6635 -235,13323 174,19936l-21 1348c-906,-873 -3888,-5190 -4691,-6320l-4857 -6530c-1638,-2241 -3246,-4386 -4827,-6570l-2410 -3277c-524,-641 -736,-919 -1202,-1645 -662,-1034 -932,-1472 -1880,-1472l-7031 74 6 38692c2693,204 4742,-638 6167,-2103 1901,-1954 2054,-3025 2046,-6501 -13,-5684 -176,-11690 -176,-17127 968,665 9690,13170 11217,15103l2863 3791c500,742 798,1157 1386,1937l2800 3835c596,922 687,1117 2064,1119 2063,3 4465,81 6492,-48l93 -41189c-4003,-14 -8213,3023 -8213,6947z"></path> <path class="fil3" d="M146272 73991c-3013,4 -7939,-505 -7945,3102 -5,3805 4219,3189 7851,3189l117 21666c4468,61 7510,-2374 7516,-6809 6,-4951 -7,-9904 -7,-14856l8459 -3 99 -6062c-170,-30 -262,-127 -297,-69l-389 -113c-68,-11 -136,-25 -213,-34l-7640 -11c-119,-4002 280,-6228 3578,-7353 3161,-1079 6974,243 8988,1669l52 32971c180,850 22,266 211,594 2856,-73 6084,-1176 7097,-3714 687,-1720 329,-23576 330,-27950 0,-906 58,-1989 18,-2868 -51,-1104 -288,-1258 -1007,-1862 -6674,-5615 -19281,-7618 -24833,-886 -2231,2704 -1884,5255 -1985,9399z"></path> <path class="fil3" d="M115700 86110c0,-3325 2963,-6526 6369,-6526l1899 0c4103,0 6683,4019 6354,7870 -878,10285 -14622,8206 -14622,554l0 -1898zm3944 -12928c-4607,787 -6894,2631 -9169,5377 -6108,7371 -1883,25088 15599,22200 7782,-1286 13428,-7399 11724,-16874 -1379,-7667 -9175,-12238 -18154,-10703z"></path> <path class="fil3" d="M226494 80632c-4202,0 -3876,-4506 -5702,-7571 -4030,-6765 -16082,-593 -11441,7173 2429,4064 6944,2490 8730,4558 2059,2384 1415,6541 4941,8348 3430,1758 7756,717 9304,-1919 2722,-4635 -209,-5919 5441,-7844 1311,-447 3557,-1167 4569,-2074 5682,-5100 -541,-14231 -7904,-10753 -5001,2362 -2919,10082 -7938,10082z"></path> <path class="fil3" d="M184915 85002c204,-2072 687,-3325 1887,-4402 2960,-2657 10917,-3038 10864,4402l-12751 0zm7404 16430l1900 0c2632,0 9049,-1667 9049,-5355 0,-4262 -3666,-1300 -5510,-710 -3090,988 -7337,659 -10058,-845 -2071,-1145 -2696,-2536 -2552,-4803l19427 -7c337,-2189 475,-2240 440,-4314 0,-3394 -1826,-7022 -3572,-8651 -4103,-3827 -11530,-4530 -16693,-2003 -4710,2306 -7746,7819 -7383,13506 314,4918 1867,6967 4528,9468 2242,2108 6481,3714 10424,3714z"></path> <path class="fil3" d="M84764 85002c28,-8990 14513,-7179 12586,-40l-12586 40zm7164 16430c3223,0 5880,-375 8853,-1940 2272,-1196 3224,-3790 1115,-5749 -879,-347 -3883,2270 -8544,2270 -3970,0 -8966,-1850 -8528,-6293l19505 0c745,-4995 666,-9623 -3485,-13236 -4144,-3607 -11234,-4208 -16452,-1708 -1696,812 -2922,2062 -3943,3179 -5239,5725 -5298,18379 5611,22333 1286,467 4300,1144 5868,1144z"></path> <path class="fil3" d="M242769 65462c0,8607 13895,9777 13806,-945 -41,-4933 2141,-2434 4472,-5084 3010,-3423 -2062,-8020 -5592,-5116 -951,783 -1018,1735 -1580,3175 -799,2049 -4815,956 -7306,2168 -1839,895 -3800,3041 -3800,5802z"></path> <path class="fil3" d="M230534 97976c0,3113 1315,5272 3999,6432 2327,1005 6564,-121 7397,1843 241,567 1040,4890 5252,3616 2307,-698 3594,-3540 1828,-5692 -1914,-2330 -4024,-310 -4711,-4516 -289,-1765 -83,-4884 -2854,-6675 -5381,-3476 -10911,651 -10911,4992z"></path> <path class="fil3" d="M208685 97264l0 1187c0,3269 3472,6203 6852,6080 9445,-344 8354,-13237 515,-13237l-1187 0c-3043,0 -6180,2871 -6180,5970z"></path> <path class="fil3" d="M206394 63792c-5046,2332 -1614,8828 3069,6940 4445,-1791 1641,-9117 -3069,-6940z"></path> <path class="fil3" d="M264933 45914c-4559,1731 -2263,8704 2711,7101 4576,-1474 2485,-9074 -2711,-7101z"></path> <path class="fil3" d="M252077 110696c-5007,1640 -2708,8405 2128,7159 5077,-1309 2592,-8706 -2128,-7159z"></path> <path class="fil3" d="M203967 107707c0,5596 7690,4960 7690,237 0,-4923 -7690,-4787 -7690,-237z"></path> <path class="fil3" d="M363462 74121c4156,-415 7025,1172 9362,3036 2320,1849 3808,5316 4084,8510 666,7695 -4133,13624 -10965,14212 -16910,1455 -18171,-24193 -2481,-25758zm25008 22418c174,-725 561,-1595 792,-2378 1696,-5757 1198,-12617 -1391,-17879 -1101,-2237 -3339,-5395 -5204,-7027 -2026,-1775 -2929,-2452 -5244,-3841 -627,-377 -1441,-662 -1954,-1026 -1106,-311 -2296,-871 -3540,-1229 -8282,-2385 -18476,-278 -24709,5668 -1759,1678 -3533,3751 -4762,5894 -4106,7164 -4138,16072 -814,23210 1934,4153 5616,7841 8999,10008 9437,6045 23081,5075 31293,-2465 240,-220 375,-400 603,-602l1761 -1748c915,-1028 3946,-5235 4170,-6585z"></path> <path class="fil3" d="M347077 45228c1507,-2296 5500,-2597 8812,-1992 2026,370 7001,2120 8051,3205 -3738,952 -15125,1984 -16863,-1213zm-567 -9452c-933,800 -5690,2182 -6987,7550 -1128,4673 2061,7988 4975,9356 9268,4350 23177,-1124 25056,-1202l1811 2800c648,1050 1098,1981 1644,3082 654,1319 2407,5476 2460,7026 513,364 1327,649 1954,1026 2315,1389 3218,2066 5244,3841 1865,1632 4103,4790 5204,7027 2589,5262 3087,12122 1391,17879 -231,783 -618,1653 -792,2378 308,-285 351,-505 533,-948 142,-348 270,-663 416,-1037 3317,-8525 2665,-19176 82,-27782 -732,-2440 -1337,-4131 -2283,-6428 -274,-664 -712,-1497 -916,-2164l-2926 -5501c-551,-926 -1065,-1728 -1665,-2569l-1789 -2460c723,-444 2004,-890 2853,-1270l8441 -3943 -1962 -4130c-1408,326 -10121,4347 -13488,4999 -617,-744 -1844,-1668 -2667,-2267 -6202,-4510 -14881,-7658 -22706,-6344 -1513,255 -2586,733 -3883,1081z"></path> <path class="fil3" d="M471303 104981c-428,-910 -195,-8057 -195,-9082l-3340 0c0,1381 230,6544 -195,7443 -53,3131 -3872,3459 -4468,904 -369,-1587 -142,-6538 -144,-8533l-3545 66c3,2113 -2,4225 6,6338 6,2025 -222,3708 -2394,3776 -2386,74 -2266,-1913 -2258,-4009 7,-2055 1,-4109 3,-6164l-3588 2c8,5905 -1480,13342 4914,13421 2187,28 3038,-821 4213,-1691l823 635c2289,1801 5844,1124 7067,-483l1197 1297c-331,1403 -762,3039 -87,4581l2877 6c52,-1087 -267,-2189 243,-3225 1065,-2164 1453,524 1452,-4171 -1415,-1 -2268,209 -2581,-1111z"></path> <path class="fil3" d="M414092 80587c-1463,4608 -7718,2523 -6355,-2254 1243,-4353 7838,-2420 6355,2254zm3904 -4776l-782 -2438c-676,-2031 -1854,-3993 -3378,-5275 -2374,-1997 -4608,-2757 -8631,-3028l145 3073c3845,236 7018,2221 7976,5180 -8286,-2569 -12456,6431 -7310,11485 2923,2871 9729,2363 11499,-3488 586,-1935 60,-4059 481,-5509z"></path> <path class="fil3" d="M494818 76110c4419,-1217 4934,5943 1893,6942 -4718,1551 -5780,-5871 -1893,-6942zm-3839 9260c862,173 4621,2986 8158,-786 840,2030 2474,2136 4970,1600l-22 -2982c-2489,-24 -1891,-1734 -1887,-4019 3,-1978 -214,-4240 117,-6159 -4195,2 -3560,-406 -3586,1120 -566,-336 -127,-87 -623,-455l-1564 -783c-2627,-652 -5376,470 -6642,2641 -943,1620 -1233,3329 -992,5490 271,2424 1361,2955 2071,4333z"></path> <path class="fil3" d="M423764 106093l2 -2575c1644,0 3226,-168 4476,458 668,2713 -2249,2117 -4478,2117zm1 -5105l1 -2427c1256,3 4041,-526 3987,1196 -55,1734 -2690,1228 -3988,1231zm-3543 6977l46 895c4183,5 11511,1138 11799,-3469 120,-1927 -825,-2395 -1852,-3276 2814,-3811 304,-6395 -3833,-6395l-6160 1 0 12244z"></path> <path class="fil3" d="M478368 101002c769,-3216 5417,-3533 5854,42l-5854 -42zm9011 2891c759,-1568 299,-3912 -382,-5296 -3344,-6786 -14786,-2051 -11831,6211 1870,5228 8566,5397 12038,2417l-1620 -2499c-2352,1274 -5939,2296 -7060,-833l8855 0z"></path> <path class="fil3" d="M409998 98760c4368,-1270 5696,5619 2005,6769 -4761,1483 -6172,-5557 -2005,-6769zm7726 4993c1988,-9719 -12090,-11137 -13715,-3196 -2026,9896 11966,11748 13715,3196z"></path> <path class="fil3" d="M440708 98783c4584,-1346 5686,5718 1978,6775 -4726,1346 -6031,-5585 -1978,-6775zm-6050 4502c982,8523 14937,7849 13911,-2092 -862,-8358 -15042,-7729 -13911,2092z"></path> <path class="fil3" d="M424537 80353c-886,-5112 5671,-6112 6454,-1570 851,4935 -5715,5829 -6454,1570zm-1867 -5784c-380,654 -867,894 -1318,1917 -2942,6675 4266,13054 10891,8570l390 -252c468,-839 976,-1061 1534,-2287 2872,-6320 -3920,-13283 -11497,-7948z"></path> <path class="fil3" d="M456635 84884c1172,1083 1919,1690 4150,1605 1681,-65 3123,-829 3864,-1582 1675,2185 1577,1203 4282,1600 38,-37 306,-320 395,-432 774,-982 -409,844 187,-340l-62 -2532c-2298,-21 -1889,-1091 -1886,-4254 2,-1975 0,-3950 0,-5925l-3508 2c-3,4933 965,10146 -2575,10184 -4189,46 -1702,-7377 -2517,-10185l-3373 34c-282,1277 -96,5032 -100,6593 -5,2064 -42,3920 1143,5232z"></path> <path class="fil3" d="M502315 95722l-3627 -1c7,4927 961,10177 -2572,10195 -4198,22 -1689,-7370 -2522,-10194l-3467 36c34,2874 -483,9251 773,11337 1713,2845 6307,2532 8396,495 1256,1812 2184,1852 4833,1293l15 -2556c-270,-984 -1494,206 -1871,-1471 -245,-1087 -110,-8251 42,-9134z"></path> <path class="fil3" d="M472968 86202l3505 -43 67 -4826 5460 -75 13 4905c1902,-4 3312,349 3571,-428l-1 -12716 -3450 55c0,1412 227,3552 -167,4875l-5397 -46c-425,-1334 -171,-3374 -170,-4828l-3451 -52 20 13179z"></path> <path class="fil3" d="M436912 86183c5848,2102 7256,-5233 7255,-10041l3367 0 6 9936 3327 103c494,-2222 137,-10194 141,-13016l-10275 113c-182,2253 -39,4174 -490,6445 -455,2290 -1042,3337 -3332,3672l1 2788z"></path> <path class="fil3" d="M492736 93445c976,348 1301,926 2731,1102 1280,156 2343,-141 3454,-401 340,-611 898,-704 1362,-1426 468,-730 553,-1632 587,-2615l-2416 1c-941,695 -253,1805 -1893,1953 -1638,148 -1634,-708 -2085,-1855l-2650 -113c28,1333 49,1467 595,2613l315 741z"></path> <path class="fil3" d="M450867 86181l313 98c169,-1848 347,-12100 -143,-13329l-9679 -9c-1034,45 -327,-50 -625,337l10275 -113c-4,2822 353,10794 -141,13016z"></path> <path class="fil3" d="M482133 73074c-428,765 -222,3731 -221,4638l-5294 -1c8,-1035 254,-3783 -219,-4636 -1,1454 -255,3494 170,4828l5397 46c394,-1323 167,-3463 167,-4875z"></path> </g> </svg> 